<svg width="24" height="24" viewBox="0 0 24 24" xmlns="http://www.w3.org/2000/svg">
<g>
<path d="M11.9999 21.5C10.8166 21.5 9.71257 21.275 8.6879 20.825C7.66257 20.375 6.76657 19.7667 5.9999 19C5.23324 18.2333 4.6249 17.3373 4.1749 16.312C3.7249 15.2873 3.4999 14.1833 3.4999 13C3.4999 11.8167 3.7249 10.7127 4.1749 9.68799C4.6249 8.66266 5.23324 7.76666 5.9999 6.99999C6.76657 6.23333 7.66257 5.62499 8.6879 5.17499C9.71257 4.72499 10.8166 4.49999 11.9999 4.49999C13.1832 4.49999 14.2872 4.72499 15.3119 5.17499C16.3372 5.62499 17.2332 6.23333 17.9999 6.99999C18.7666 7.76666 19.3749 8.66266 19.8249 9.68799C20.2749 10.7127 20.4999 11.8167 20.4999 13C20.4999 14.1833 20.2749 15.2873 19.8249 16.312C19.3749 17.3373 18.7666 18.2333 17.9999 19C17.2332 19.7667 16.3372 20.375 15.3119 20.825C14.2872 21.275 13.1832 21.5 11.9999 21.5ZM14.9749 17.025L16.0249 15.975L12.7499 12.7V7.99999H11.2499V13.3L14.9749 17.025ZM5.7499 2.89999L6.7999 3.94999L2.9499 7.79999L1.8999 6.74999L5.7499 2.89999ZM18.2499 2.89999L22.0999 6.74999L21.0499 7.79999L17.1999 3.94999L18.2499 2.89999ZM11.9999 20C13.9499 20 15.6039 19.3207 16.9619 17.962C18.3206 16.604 18.9999 14.95 18.9999 13C18.9999 11.05 18.3206 9.39566 16.9619 8.03699C15.6039 6.67899 13.9499 5.99999 11.9999 5.99999C10.0499 5.99999 8.3959 6.67899 7.0379 8.03699C5.67924 9.39566 4.9999 11.05 4.9999 13C4.9999 14.95 5.67924 16.604 7.0379 17.962C8.3959 19.3207 10.0499 20 11.9999 20Z" />
</g>
</svg>
